<mxfile host="app.diagrams.net" modified="2022-01-10T12:35:17.767Z" agent="5.0 (Windows NT 10.0; Win64; x64) AppleWebKit/537.36 (KHTML, like Gecko) Chrome/96.0.4664.110 Safari/537.36" etag="OXZ6PTn3jSgNfsh-1zql" version="16.2.3" type="github">
  <diagram id="vL3J60s9iTPvlTzV4Ia3" name="Page-1">
    <mxGraphModel dx="1578" dy="836" grid="1" gridSize="10" guides="1" tooltips="1" connect="1" arrows="1" fold="1" page="1" pageScale="1" pageWidth="1169" pageHeight="827" math="0" shadow="0">
      <root>
        <mxCell id="0" />
        <mxCell id="1" parent="0" />
        <mxCell id="xbTyZBBeEin3yVoQMGsr-1" style="edgeStyle=orthogonalEdgeStyle;rounded=0;orthogonalLoop=1;jettySize=auto;html=1;" edge="1" parent="1" source="xbTyZBBeEin3yVoQMGsr-2" target="xbTyZBBeEin3yVoQMGsr-10">
          <mxGeometry relative="1" as="geometry" />
        </mxCell>
        <mxCell id="xbTyZBBeEin3yVoQMGsr-2" value="" style="fontColor=#0066CC;verticalAlign=top;verticalLabelPosition=bottom;labelPosition=center;align=center;html=1;outlineConnect=0;fillColor=#CCCCCC;strokeColor=#6881B3;gradientColor=none;gradientDirection=north;strokeWidth=2;shape=mxgraph.networks.pc;" vertex="1" parent="1">
          <mxGeometry x="74" y="352.5" width="70" height="60" as="geometry" />
        </mxCell>
        <mxCell id="xbTyZBBeEin3yVoQMGsr-3" style="edgeStyle=orthogonalEdgeStyle;rounded=0;orthogonalLoop=1;jettySize=auto;html=1;" edge="1" parent="1" source="xbTyZBBeEin3yVoQMGsr-4" target="xbTyZBBeEin3yVoQMGsr-10">
          <mxGeometry relative="1" as="geometry">
            <Array as="points">
              <mxPoint x="290" y="287.5" />
              <mxPoint x="290" y="362.5" />
            </Array>
          </mxGeometry>
        </mxCell>
        <mxCell id="xbTyZBBeEin3yVoQMGsr-4" value="" style="fontColor=#0066CC;verticalAlign=top;verticalLabelPosition=bottom;labelPosition=center;align=center;html=1;outlineConnect=0;fillColor=#CCCCCC;strokeColor=#6881B3;gradientColor=none;gradientDirection=north;strokeWidth=2;shape=mxgraph.networks.mobile;" vertex="1" parent="1">
          <mxGeometry x="79" y="252.5" width="35" height="70" as="geometry" />
        </mxCell>
        <mxCell id="xbTyZBBeEin3yVoQMGsr-5" style="edgeStyle=orthogonalEdgeStyle;rounded=0;orthogonalLoop=1;jettySize=auto;html=1;entryX=0;entryY=0.88;entryDx=0;entryDy=0;entryPerimeter=0;" edge="1" parent="1" source="xbTyZBBeEin3yVoQMGsr-6" target="xbTyZBBeEin3yVoQMGsr-10">
          <mxGeometry relative="1" as="geometry" />
        </mxCell>
        <mxCell id="xbTyZBBeEin3yVoQMGsr-6" value="&lt;font color=&quot;#ffffff&quot;&gt;&lt;b&gt;Postman&lt;/b&gt;&lt;/font&gt;" style="ellipse;whiteSpace=wrap;html=1;aspect=fixed;fillColor=#F06616;fontColor=#000000;strokeColor=#BD7000;" vertex="1" parent="1">
          <mxGeometry x="69" y="452.5" width="80" height="80" as="geometry" />
        </mxCell>
        <mxCell id="xbTyZBBeEin3yVoQMGsr-7" value="DOCKER CONTAINER" style="swimlane;strokeColor=#0e8088;strokeWidth=2;fillColor=#b0e3e6;" vertex="1" parent="1">
          <mxGeometry x="249" y="42.5" width="850" height="743" as="geometry" />
        </mxCell>
        <mxCell id="xbTyZBBeEin3yVoQMGsr-8" style="edgeStyle=orthogonalEdgeStyle;rounded=0;orthogonalLoop=1;jettySize=auto;html=1;exitX=1;exitY=0.5;exitDx=0;exitDy=0;entryX=0;entryY=0.5;entryDx=0;entryDy=0;" edge="1" parent="xbTyZBBeEin3yVoQMGsr-7" source="xbTyZBBeEin3yVoQMGsr-10" target="xbTyZBBeEin3yVoQMGsr-13">
          <mxGeometry relative="1" as="geometry" />
        </mxCell>
        <mxCell id="xbTyZBBeEin3yVoQMGsr-9" style="edgeStyle=orthogonalEdgeStyle;rounded=0;orthogonalLoop=1;jettySize=auto;html=1;entryX=0.5;entryY=1;entryDx=0;entryDy=0;strokeColor=#0000FF;strokeWidth=2;" edge="1" parent="xbTyZBBeEin3yVoQMGsr-7" source="xbTyZBBeEin3yVoQMGsr-10" target="xbTyZBBeEin3yVoQMGsr-39">
          <mxGeometry relative="1" as="geometry" />
        </mxCell>
        <mxCell id="xbTyZBBeEin3yVoQMGsr-10" value="API&lt;br&gt;GATEWAY" style="whiteSpace=wrap;html=1;aspect=fixed;fillColor=#d5e8d4;strokeColor=#82b366;" vertex="1" parent="xbTyZBBeEin3yVoQMGsr-7">
          <mxGeometry x="120" y="295" width="150" height="150" as="geometry" />
        </mxCell>
        <mxCell id="xbTyZBBeEin3yVoQMGsr-11" style="edgeStyle=orthogonalEdgeStyle;rounded=0;orthogonalLoop=1;jettySize=auto;html=1;entryX=1;entryY=0.5;entryDx=0;entryDy=0;" edge="1" parent="xbTyZBBeEin3yVoQMGsr-7" source="xbTyZBBeEin3yVoQMGsr-13" target="xbTyZBBeEin3yVoQMGsr-10">
          <mxGeometry relative="1" as="geometry" />
        </mxCell>
        <mxCell id="xbTyZBBeEin3yVoQMGsr-12" style="edgeStyle=orthogonalEdgeStyle;rounded=0;orthogonalLoop=1;jettySize=auto;html=1;entryX=0;entryY=0.5;entryDx=0;entryDy=0;" edge="1" parent="xbTyZBBeEin3yVoQMGsr-7" source="xbTyZBBeEin3yVoQMGsr-13" target="xbTyZBBeEin3yVoQMGsr-15">
          <mxGeometry relative="1" as="geometry" />
        </mxCell>
        <mxCell id="xbTyZBBeEin3yVoQMGsr-13" value="LOAD BALANCE" style="rounded=0;whiteSpace=wrap;html=1;fillColor=#f8cecc;strokeColor=#b85450;" vertex="1" parent="xbTyZBBeEin3yVoQMGsr-7">
          <mxGeometry x="344" y="340" width="80" height="60" as="geometry" />
        </mxCell>
        <mxCell id="xbTyZBBeEin3yVoQMGsr-14" style="edgeStyle=orthogonalEdgeStyle;rounded=0;orthogonalLoop=1;jettySize=auto;html=1;" edge="1" parent="xbTyZBBeEin3yVoQMGsr-7" source="xbTyZBBeEin3yVoQMGsr-15" target="xbTyZBBeEin3yVoQMGsr-13">
          <mxGeometry relative="1" as="geometry" />
        </mxCell>
        <mxCell id="xbTyZBBeEin3yVoQMGsr-15" value="SERVER REGISTRITY&lt;br&gt;(EUREKA)" style="rounded=0;whiteSpace=wrap;html=1;fillColor=#f8cecc;strokeColor=#b85450;" vertex="1" parent="xbTyZBBeEin3yVoQMGsr-7">
          <mxGeometry x="510" y="340" width="120" height="60" as="geometry" />
        </mxCell>
        <mxCell id="xbTyZBBeEin3yVoQMGsr-16" value="" style="edgeStyle=orthogonalEdgeStyle;rounded=0;orthogonalLoop=1;jettySize=auto;html=1;strokeColor=#FF0000;" edge="1" parent="xbTyZBBeEin3yVoQMGsr-7" source="xbTyZBBeEin3yVoQMGsr-17" target="xbTyZBBeEin3yVoQMGsr-15">
          <mxGeometry relative="1" as="geometry" />
        </mxCell>
        <mxCell id="xbTyZBBeEin3yVoQMGsr-17" value="" style="whiteSpace=wrap;html=1;aspect=fixed;fillColor=#a20025;fontColor=#ffffff;strokeColor=#6F0000;" vertex="1" parent="xbTyZBBeEin3yVoQMGsr-7">
          <mxGeometry x="720" y="317" width="100" height="100" as="geometry" />
        </mxCell>
        <mxCell id="xbTyZBBeEin3yVoQMGsr-18" value="" style="whiteSpace=wrap;html=1;aspect=fixed;fillColor=#a20025;fontColor=#ffffff;strokeColor=#6F0000;" vertex="1" parent="xbTyZBBeEin3yVoQMGsr-7">
          <mxGeometry x="730" y="327" width="100" height="100" as="geometry" />
        </mxCell>
        <mxCell id="xbTyZBBeEin3yVoQMGsr-19" style="edgeStyle=orthogonalEdgeStyle;rounded=0;orthogonalLoop=1;jettySize=auto;html=1;entryX=0.75;entryY=1;entryDx=0;entryDy=0;" edge="1" parent="xbTyZBBeEin3yVoQMGsr-7" source="xbTyZBBeEin3yVoQMGsr-21" target="xbTyZBBeEin3yVoQMGsr-13">
          <mxGeometry relative="1" as="geometry">
            <Array as="points">
              <mxPoint x="790" y="637" />
              <mxPoint x="404" y="637" />
            </Array>
          </mxGeometry>
        </mxCell>
        <mxCell id="xbTyZBBeEin3yVoQMGsr-20" style="edgeStyle=orthogonalEdgeStyle;rounded=0;orthogonalLoop=1;jettySize=auto;html=1;entryX=0.75;entryY=1;entryDx=0;entryDy=0;strokeColor=#0000FF;strokeWidth=2;" edge="1" parent="xbTyZBBeEin3yVoQMGsr-7" source="xbTyZBBeEin3yVoQMGsr-21" target="xbTyZBBeEin3yVoQMGsr-39">
          <mxGeometry relative="1" as="geometry">
            <Array as="points">
              <mxPoint x="790" y="280" />
              <mxPoint x="255" y="280" />
            </Array>
          </mxGeometry>
        </mxCell>
        <mxCell id="xbTyZBBeEin3yVoQMGsr-21" value="MICROSERVICE&lt;br&gt;CARD" style="whiteSpace=wrap;html=1;aspect=fixed;fillColor=#a20025;fontColor=#ffffff;strokeColor=#6F0000;" vertex="1" parent="xbTyZBBeEin3yVoQMGsr-7">
          <mxGeometry x="740" y="337" width="100" height="100" as="geometry" />
        </mxCell>
        <mxCell id="xbTyZBBeEin3yVoQMGsr-22" value="" style="edgeStyle=orthogonalEdgeStyle;rounded=0;orthogonalLoop=1;jettySize=auto;html=1;strokeColor=#FF0000;" edge="1" parent="xbTyZBBeEin3yVoQMGsr-7" source="xbTyZBBeEin3yVoQMGsr-23" target="xbTyZBBeEin3yVoQMGsr-15">
          <mxGeometry relative="1" as="geometry" />
        </mxCell>
        <mxCell id="xbTyZBBeEin3yVoQMGsr-23" value="" style="whiteSpace=wrap;html=1;aspect=fixed;fillColor=#fa6800;fontColor=#000000;strokeColor=#C73500;" vertex="1" parent="xbTyZBBeEin3yVoQMGsr-7">
          <mxGeometry x="550" y="497" width="100" height="100" as="geometry" />
        </mxCell>
        <mxCell id="xbTyZBBeEin3yVoQMGsr-24" value="" style="whiteSpace=wrap;html=1;aspect=fixed;fillColor=#fa6800;fontColor=#000000;strokeColor=#C73500;" vertex="1" parent="xbTyZBBeEin3yVoQMGsr-7">
          <mxGeometry x="560" y="507" width="100" height="100" as="geometry" />
        </mxCell>
        <mxCell id="xbTyZBBeEin3yVoQMGsr-25" style="edgeStyle=orthogonalEdgeStyle;rounded=0;orthogonalLoop=1;jettySize=auto;html=1;strokeColor=#0000FF;strokeWidth=2;" edge="1" parent="xbTyZBBeEin3yVoQMGsr-7" source="xbTyZBBeEin3yVoQMGsr-26" target="xbTyZBBeEin3yVoQMGsr-39">
          <mxGeometry relative="1" as="geometry">
            <Array as="points">
              <mxPoint x="320" y="567" />
              <mxPoint x="320" y="107" />
            </Array>
          </mxGeometry>
        </mxCell>
        <mxCell id="xbTyZBBeEin3yVoQMGsr-26" value="&lt;font color=&quot;#ffffff&quot;&gt;MICROSERVICE&lt;br&gt;PRODUCT&lt;br&gt;&lt;/font&gt;" style="whiteSpace=wrap;html=1;aspect=fixed;fillColor=#fa6800;fontColor=#000000;strokeColor=#C73500;" vertex="1" parent="xbTyZBBeEin3yVoQMGsr-7">
          <mxGeometry x="570" y="517" width="100" height="100" as="geometry" />
        </mxCell>
        <mxCell id="xbTyZBBeEin3yVoQMGsr-27" value="" style="whiteSpace=wrap;html=1;aspect=fixed;fillColor=#1ba1e2;fontColor=#ffffff;strokeColor=#006EAF;" vertex="1" parent="xbTyZBBeEin3yVoQMGsr-7">
          <mxGeometry x="520" y="117" width="100" height="100" as="geometry" />
        </mxCell>
        <mxCell id="xbTyZBBeEin3yVoQMGsr-28" value="" style="whiteSpace=wrap;html=1;aspect=fixed;fillColor=#1ba1e2;fontColor=#ffffff;strokeColor=#006EAF;" vertex="1" parent="xbTyZBBeEin3yVoQMGsr-7">
          <mxGeometry x="530" y="127" width="100" height="100" as="geometry" />
        </mxCell>
        <mxCell id="xbTyZBBeEin3yVoQMGsr-29" value="" style="edgeStyle=orthogonalEdgeStyle;rounded=0;orthogonalLoop=1;jettySize=auto;html=1;strokeColor=#FF0000;" edge="1" parent="xbTyZBBeEin3yVoQMGsr-7" source="xbTyZBBeEin3yVoQMGsr-32" target="xbTyZBBeEin3yVoQMGsr-15">
          <mxGeometry relative="1" as="geometry" />
        </mxCell>
        <mxCell id="xbTyZBBeEin3yVoQMGsr-30" style="edgeStyle=orthogonalEdgeStyle;rounded=0;orthogonalLoop=1;jettySize=auto;html=1;entryX=0.5;entryY=0;entryDx=0;entryDy=0;" edge="1" parent="xbTyZBBeEin3yVoQMGsr-7" source="xbTyZBBeEin3yVoQMGsr-32" target="xbTyZBBeEin3yVoQMGsr-13">
          <mxGeometry relative="1" as="geometry" />
        </mxCell>
        <mxCell id="xbTyZBBeEin3yVoQMGsr-31" style="edgeStyle=orthogonalEdgeStyle;rounded=0;orthogonalLoop=1;jettySize=auto;html=1;strokeColor=#0000FF;strokeWidth=2;" edge="1" parent="xbTyZBBeEin3yVoQMGsr-7" source="xbTyZBBeEin3yVoQMGsr-32" target="xbTyZBBeEin3yVoQMGsr-39">
          <mxGeometry relative="1" as="geometry">
            <mxPoint x="310" y="122" as="targetPoint" />
            <Array as="points">
              <mxPoint x="590" y="122" />
            </Array>
          </mxGeometry>
        </mxCell>
        <mxCell id="xbTyZBBeEin3yVoQMGsr-32" value="MICROSERVICE&lt;br&gt;CUSTOMER" style="whiteSpace=wrap;html=1;aspect=fixed;fillColor=#1ba1e2;fontColor=#ffffff;strokeColor=#006EAF;" vertex="1" parent="xbTyZBBeEin3yVoQMGsr-7">
          <mxGeometry x="540" y="137" width="100" height="100" as="geometry" />
        </mxCell>
        <mxCell id="xbTyZBBeEin3yVoQMGsr-33" value="" style="whiteSpace=wrap;html=1;aspect=fixed;fillColor=#6a00ff;fontColor=#ffffff;strokeColor=#3700CC;" vertex="1" parent="xbTyZBBeEin3yVoQMGsr-7">
          <mxGeometry x="710" y="137" width="100" height="100" as="geometry" />
        </mxCell>
        <mxCell id="xbTyZBBeEin3yVoQMGsr-34" value="" style="whiteSpace=wrap;html=1;aspect=fixed;fillColor=#6a00ff;fontColor=#ffffff;strokeColor=#3700CC;" vertex="1" parent="xbTyZBBeEin3yVoQMGsr-7">
          <mxGeometry x="720" y="147" width="100" height="100" as="geometry" />
        </mxCell>
        <mxCell id="xbTyZBBeEin3yVoQMGsr-35" style="edgeStyle=orthogonalEdgeStyle;rounded=0;orthogonalLoop=1;jettySize=auto;html=1;entryX=1;entryY=0.25;entryDx=0;entryDy=0;strokeColor=#FF0000;" edge="1" parent="xbTyZBBeEin3yVoQMGsr-7" source="xbTyZBBeEin3yVoQMGsr-38" target="xbTyZBBeEin3yVoQMGsr-15">
          <mxGeometry relative="1" as="geometry" />
        </mxCell>
        <mxCell id="xbTyZBBeEin3yVoQMGsr-36" style="edgeStyle=orthogonalEdgeStyle;rounded=0;orthogonalLoop=1;jettySize=auto;html=1;entryX=0.75;entryY=0;entryDx=0;entryDy=0;" edge="1" parent="xbTyZBBeEin3yVoQMGsr-7" source="xbTyZBBeEin3yVoQMGsr-38" target="xbTyZBBeEin3yVoQMGsr-13">
          <mxGeometry relative="1" as="geometry">
            <Array as="points">
              <mxPoint x="780" y="87" />
              <mxPoint x="404" y="87" />
            </Array>
          </mxGeometry>
        </mxCell>
        <mxCell id="xbTyZBBeEin3yVoQMGsr-37" style="edgeStyle=orthogonalEdgeStyle;rounded=0;orthogonalLoop=1;jettySize=auto;html=1;strokeColor=#0000FF;strokeWidth=2;" edge="1" parent="xbTyZBBeEin3yVoQMGsr-7" source="xbTyZBBeEin3yVoQMGsr-38" target="xbTyZBBeEin3yVoQMGsr-39">
          <mxGeometry relative="1" as="geometry">
            <mxPoint x="280" y="40" as="targetPoint" />
            <Array as="points">
              <mxPoint x="800" y="40" />
              <mxPoint x="250" y="40" />
            </Array>
          </mxGeometry>
        </mxCell>
        <mxCell id="xbTyZBBeEin3yVoQMGsr-38" value="MICROSERVICE&lt;br&gt;TRANSACTION" style="whiteSpace=wrap;html=1;aspect=fixed;fillColor=#6a00ff;fontColor=#ffffff;strokeColor=#3700CC;" vertex="1" parent="xbTyZBBeEin3yVoQMGsr-7">
          <mxGeometry x="730" y="157" width="100" height="100" as="geometry" />
        </mxCell>
        <mxCell id="xbTyZBBeEin3yVoQMGsr-39" value="CONFIG&lt;br&gt;SERVER" style="whiteSpace=wrap;html=1;aspect=fixed;fillColor=#76608a;strokeColor=#432D57;fontColor=#ffffff;" vertex="1" parent="xbTyZBBeEin3yVoQMGsr-7">
          <mxGeometry x="180" y="57" width="100" height="100" as="geometry" />
        </mxCell>
        <mxCell id="xbTyZBBeEin3yVoQMGsr-47" value="" style="sketch=0;aspect=fixed;html=1;points=[];align=center;image;fontSize=12;image=img/lib/mscae/Docker.svg;strokeColor=#FF0000;strokeWidth=2;" vertex="1" parent="xbTyZBBeEin3yVoQMGsr-7">
          <mxGeometry x="294" y="-12.5" width="50" height="41" as="geometry" />
        </mxCell>
        <mxCell id="xbTyZBBeEin3yVoQMGsr-40" style="edgeStyle=orthogonalEdgeStyle;rounded=0;orthogonalLoop=1;jettySize=auto;html=1;" edge="1" parent="1" source="xbTyZBBeEin3yVoQMGsr-26">
          <mxGeometry relative="1" as="geometry">
            <mxPoint x="629" y="472.5" as="targetPoint" />
          </mxGeometry>
        </mxCell>
        <mxCell id="xbTyZBBeEin3yVoQMGsr-43" style="edgeStyle=orthogonalEdgeStyle;rounded=0;orthogonalLoop=1;jettySize=auto;html=1;fontSize=15;strokeColor=#FF0000;strokeWidth=2;exitX=1;exitY=0.75;exitDx=0;exitDy=0;" edge="1" parent="1" target="xbTyZBBeEin3yVoQMGsr-39" source="xbTyZBBeEin3yVoQMGsr-46">
          <mxGeometry relative="1" as="geometry">
            <mxPoint x="233" y="117.50000000000011" as="sourcePoint" />
          </mxGeometry>
        </mxCell>
        <mxCell id="xbTyZBBeEin3yVoQMGsr-44" value="" style="group" vertex="1" connectable="0" parent="1">
          <mxGeometry x="45" y="42.5" width="204" height="170" as="geometry" />
        </mxCell>
        <mxCell id="xbTyZBBeEin3yVoQMGsr-45" value="&lt;font style=&quot;font-size: 15px&quot;&gt;&lt;b&gt;&lt;br&gt;&lt;br&gt;&lt;br&gt;CONFIG DATA&lt;/b&gt;&lt;/font&gt;" style="ellipse;shape=cloud;whiteSpace=wrap;html=1;strokeWidth=2;strokeColor=#FF0000;" vertex="1" parent="xbTyZBBeEin3yVoQMGsr-44">
          <mxGeometry width="204" height="170" as="geometry" />
        </mxCell>
        <mxCell id="xbTyZBBeEin3yVoQMGsr-46" value="" style="shape=image;html=1;verticalAlign=top;verticalLabelPosition=bottom;labelBackgroundColor=#ffffff;imageAspect=0;aspect=fixed;image=https://cdn0.iconfinder.com/data/icons/octicons/2857/logo-github-128.png" vertex="1" parent="xbTyZBBeEin3yVoQMGsr-44">
          <mxGeometry x="52.699999999999996" y="8.5" width="108.8" height="108.8" as="geometry" />
        </mxCell>
      </root>
    </mxGraphModel>
  </diagram>
</mxfile>
